<svg width="653" height="89" viewBox="0 0 653 89" fill="none" xmlns="http://www.w3.org/2000/svg">
<path d="M12.4648 88.4648C19.4961 88.4648 24.5352 84.5391 24.5352 76.043V49.4414C24.5352 43.8164 27.4648 40.3008 32.3281 40.3008C37.4844 40.3008 40.1211 43.4062 40.1211 49.5586V76.043C40.1211 84.5391 44.457 88.4648 51.4883 88.4648C58.5195 88.4648 62.9141 84.5391 62.9141 76.043V49.4414C62.9141 43.7578 65.7852 40.3008 70.6484 40.3008C75.8633 40.3008 78.5 43.3477 78.5 49.5V76.043C78.5 84.5391 83.4219 88.4648 90.4531 88.4648C97.4844 88.4648 102.523 84.5391 102.523 76.043V43.2891C102.523 30.1055 93.8516 21.0234 81.2539 21.0234C71.4102 21.0234 63.5586 26.707 61.3906 35.2617H60.9219C59.3398 26.1797 52.7773 21.0234 42.9336 21.0234C34.0859 21.0234 26.8203 26.6484 24.418 35.3789H23.9492V33.0938C23.9492 24.6562 19.1445 20.8477 12.2305 20.8477C5.31641 20.8477 0.511719 24.7148 0.511719 33.0938V76.043C0.511719 84.5391 5.43359 88.4648 12.4648 88.4648Z" fill="#098348"/>
<path d="M141.139 88.6406C154.323 88.6406 165.221 84.1875 169.557 76.9805C170.612 75.2812 171.139 73.5234 171.139 71.707C171.139 66.5508 166.979 63.5625 162.35 63.5625C159.42 63.5625 157.545 64.3242 155.026 66.5508C150.455 70.5938 146.705 72.1758 141.491 72.1758C135.045 72.1758 130.475 67.6055 130.475 61.2773V59.7539H164.108C170.084 59.7539 173.366 56.5898 173.366 50.8477C173.366 33.4453 160.416 20.6719 140.377 20.6719C120.045 20.6719 107.33 33.8555 107.33 55.0078C107.33 76.043 119.928 88.6406 141.139 88.6406ZM130.827 46.7461C131.295 41.1797 135.455 37.1953 140.905 37.1953C146.53 37.1953 150.573 40.9453 150.983 46.7461H130.827Z" fill="#098348"/>
<path d="M190.302 88.4648C197.333 88.4648 202.313 84.5391 202.313 76.043V50.8477C202.313 44.8125 205.77 40.418 211.454 40.418C217.489 40.418 220.536 44.4023 220.536 50.9062V76.043C220.536 84.5391 225.516 88.4648 232.548 88.4648C239.579 88.4648 244.559 84.5391 244.559 76.043V45.5742C244.559 30.0469 236.591 21.0234 222.059 21.0234C212.216 21.0234 206.063 25.3594 202.782 34.4414H202.313V32.9766C202.313 25.2422 197.45 20.8477 189.95 20.8477C182.45 20.8477 178.29 25.2422 178.29 32.918V76.043C178.29 84.5391 183.27 88.4648 190.302 88.4648Z" fill="#098348"/>
<path d="M274.679 88.2891C284.347 88.2891 290.382 83.0742 292.96 74.2852H293.429V76.2773C293.429 84.6562 298.234 88.4648 305.148 88.4648C312.062 88.4648 316.866 84.6562 316.866 76.2188V33.3281C316.866 24.7734 311.886 20.8477 304.855 20.8477C297.823 20.8477 292.843 24.7734 292.843 33.2695V58.4648C292.843 64.7344 289.327 68.8945 283.937 68.8945C278.312 68.8945 274.62 65.2617 274.62 58.4062V33.3281C274.62 24.7734 269.64 20.8477 262.609 20.8477C255.577 20.8477 250.597 24.7734 250.597 33.2695V63.7969C250.597 79.207 260.792 88.2891 274.679 88.2891Z" fill="#098348"/>
<path d="M335.795 88.4648C342.826 88.4648 347.806 84.5391 347.806 76.043V75.8086H348.275C351.263 83.3672 358.295 87.9375 367.787 87.9375C383.9 87.9375 392.865 75.9844 392.865 54.6562C392.865 33.2695 383.841 21.375 367.494 21.375C358.236 21.375 351.322 26.0625 348.275 33.9727H347.806V13.4648C347.806 4.91016 342.826 0.984375 335.795 0.984375C328.763 0.984375 323.783 4.91016 323.783 13.4062V76.043C323.783 84.5391 328.763 88.4648 335.795 88.4648ZM358.002 69.4219C351.673 69.4219 347.748 63.8555 347.689 54.7148C347.748 45.6914 351.732 39.8906 358.002 39.8906C364.212 39.8906 368.255 45.6914 368.255 54.6562C368.255 63.6797 364.271 69.4219 358.002 69.4219Z" fill="#098348"/>
<path d="M430.191 88.6406C451.344 88.6406 464.234 76.5117 464.234 54.5977C464.234 33.2109 451.051 20.6719 430.191 20.6719C409.449 20.6719 396.207 33.3281 396.207 54.5977C396.207 76.4531 409.098 88.6406 430.191 88.6406ZM430.191 71.4727C424.156 71.4727 420.582 65.4961 420.582 54.6562C420.582 44.1094 424.332 37.8398 430.191 37.8398C436.109 37.8398 439.859 44.1094 439.859 54.6562C439.859 65.4961 436.168 71.4727 430.191 71.4727Z" fill="#098348"/>
<path d="M488.67 87.9375C496.17 87.9375 504.022 84.6562 507.42 78.3281H507.889C508.651 85.3594 513.104 88.4648 519.432 88.4648C526.346 88.4648 531.327 84.7148 531.327 76.3945V42.7617C531.327 29.6367 519.315 20.6719 501.385 20.6719C485.272 20.6719 474.08 25.5938 471.62 33.8555C471.268 35.0273 471.151 35.9648 471.151 37.4297C471.151 42.4102 475.194 45.9258 480.877 45.9258C484.452 45.9258 487.498 44.6367 490.311 42.0586C494.471 38.25 496.346 37.2539 500.096 37.2539C504.608 37.2539 507.889 39.5977 507.889 43.9336V47.0977L493.709 47.9766C476.424 49.0312 466.873 55.7695 466.873 68.1914C466.873 79.8516 476.893 87.9375 488.67 87.9375ZM497.635 71.8828C493.416 71.8828 490.545 69.832 490.545 66.3164C490.545 63.1523 493.123 60.9844 497.694 60.6328L507.889 59.9297V64.1484C507.889 68.8945 502.967 71.8828 497.635 71.8828Z" fill="#098348"/>
<path d="M550.02 88.4648C557.403 88.4648 562.032 84.2461 562.032 76.043V53.7188C562.032 46.6289 563.555 44.5195 570.001 44.2852C574.395 44.1094 577.735 43.0547 579.962 41.0625C582.188 39.0703 583.302 36.1992 583.302 32.3906C583.302 27.9375 582.071 24.832 579.669 23.0742C578.204 21.9609 576.212 21.375 573.809 21.375C567.364 21.375 563.087 25.9453 561.563 35.2617H561.095V32.918C561.095 25.0664 556.466 20.8477 549.727 20.8477C542.696 20.8477 538.009 25.0664 538.009 32.8594V76.043C538.009 84.2461 542.638 88.4648 550.02 88.4648Z" fill="#098348"/>
<path d="M608.382 87.9375C618.109 87.9375 625.609 82.6055 627.777 75.8086H628.245V76.043C628.245 84.5391 633.226 88.4648 640.257 88.4648C647.288 88.4648 652.269 84.5391 652.269 76.043V13.4648C652.269 4.91016 647.288 0.984375 640.257 0.984375C633.226 0.984375 628.245 4.91016 628.245 13.4062V33.9727H627.777C625.257 26.707 618.226 21.375 608.792 21.375C592.679 21.375 583.187 33.6797 583.187 54.4805C583.187 75.5742 592.445 87.9375 608.382 87.9375ZM618.05 69.4219C611.546 69.4219 607.796 63.9141 607.796 54.6562C607.796 45.5156 611.605 39.8906 618.05 39.8906C624.495 39.8906 628.362 45.457 628.362 54.7148C628.362 64.0312 624.554 69.4219 618.05 69.4219Z" fill="#098348"/>
</svg>
