<svg width="386" height="91" viewBox="0 0 386 91" fill="none" xmlns="http://www.w3.org/2000/svg">
<path d="M12.4648 68.4648C19.4961 68.4648 24.5352 64.5391 24.5352 56.043V29.4414C24.5352 23.8164 27.4648 20.3008 32.3281 20.3008C37.4844 20.3008 40.1211 23.4062 40.1211 29.5586V56.043C40.1211 64.5391 44.457 68.4648 51.4883 68.4648C58.5195 68.4648 62.9141 64.5391 62.9141 56.043V29.4414C62.9141 23.7578 65.7852 20.3008 70.6484 20.3008C75.8633 20.3008 78.5 23.3477 78.5 29.5V56.043C78.5 64.5391 83.4219 68.4648 90.4531 68.4648C97.4844 68.4648 102.523 64.5391 102.523 56.043V23.2891C102.523 10.1055 93.8516 1.02344 81.2539 1.02344C71.4102 1.02344 63.5586 6.70703 61.3906 15.2617H60.9219C59.3398 6.17969 52.7773 1.02344 42.9336 1.02344C34.0859 1.02344 26.8203 6.64844 24.418 15.3789H23.9492V13.0938C23.9492 4.65625 19.1445 0.847656 12.2305 0.847656C5.31641 0.847656 0.511719 4.71484 0.511719 13.0938V56.043C0.511719 64.5391 5.43359 68.4648 12.4648 68.4648Z" fill="#098348"/>
<path d="M141.139 68.6406C154.323 68.6406 165.221 64.1875 169.557 56.9805C170.612 55.2812 171.139 53.5234 171.139 51.707C171.139 46.5508 166.979 43.5625 162.35 43.5625C159.42 43.5625 157.545 44.3242 155.026 46.5508C150.455 50.5938 146.705 52.1758 141.491 52.1758C135.045 52.1758 130.475 47.6055 130.475 41.2773V39.7539H164.108C170.084 39.7539 173.366 36.5898 173.366 30.8477C173.366 13.4453 160.416 0.671875 140.377 0.671875C120.045 0.671875 107.33 13.8555 107.33 35.0078C107.33 56.043 119.928 68.6406 141.139 68.6406ZM130.827 26.7461C131.295 21.1797 135.455 17.1953 140.905 17.1953C146.53 17.1953 150.573 20.9453 150.983 26.7461H130.827Z" fill="#098348"/>
<path d="M190.302 68.4648C197.333 68.4648 202.313 64.5391 202.313 56.043V30.8477C202.313 24.8125 205.77 20.418 211.454 20.418C217.489 20.418 220.536 24.4023 220.536 30.9062V56.043C220.536 64.5391 225.516 68.4648 232.548 68.4648C239.579 68.4648 244.559 64.5391 244.559 56.043V25.5742C244.559 10.0469 236.591 1.02344 222.059 1.02344C212.216 1.02344 206.063 5.35938 202.782 14.4414H202.313V12.9766C202.313 5.24219 197.45 0.847656 189.95 0.847656C182.45 0.847656 178.29 5.24219 178.29 12.918V56.043C178.29 64.5391 183.27 68.4648 190.302 68.4648Z" fill="#098348"/>
<path d="M265.597 90.7305C283.058 90.7305 292.609 83.3477 299.054 64.8906L315.109 18.9531C315.929 16.668 316.515 13.6211 316.515 11.5703C316.515 5.30078 311.71 0.847656 304.855 0.847656C298.585 0.847656 294.952 3.89453 293.136 10.6328L282.706 49.7734H282.237L271.808 10.8672C269.874 3.60156 266.71 0.847656 260.148 0.847656C252.999 0.847656 247.55 5.65234 247.55 12.0391C247.55 14.1484 248.077 16.9609 249.015 19.4219L268.058 70.457L267.765 70.6914C266.066 72.0977 263.253 72.332 261.202 72.332C260.382 72.332 259.503 72.2734 258.683 72.2734C253.468 72.2734 250.187 75.0859 250.187 79.7734C250.187 86.8633 255.577 90.7305 265.597 90.7305Z" fill="#098348"/>
<path d="M343.763 68.2891C353.431 68.2891 359.466 63.0742 362.045 54.2852H362.513V56.2773C362.513 64.6562 367.318 68.4648 374.232 68.4648C381.146 68.4648 385.951 64.6562 385.951 56.2188V13.3281C385.951 4.77344 380.97 0.847656 373.939 0.847656C366.908 0.847656 361.927 4.77344 361.927 13.2695V38.4648C361.927 44.7344 358.412 48.8945 353.021 48.8945C347.396 48.8945 343.705 45.2617 343.705 38.4062V13.3281C343.705 4.77344 338.724 0.847656 331.693 0.847656C324.662 0.847656 319.681 4.77344 319.681 13.2695V43.7969C319.681 59.207 329.877 68.2891 343.763 68.2891Z" fill="#098348"/>
</svg>
